<?xml version="1.0" encoding="utf-8"?>
<!-- Generator: Adobe Illustrator 25.4.1, SVG Export Plug-In . SVG Version: 6.00 Build 0)  -->
<svg version="1.1" id="Layer_1" xmlns="http://www.w3.org/2000/svg" xmlns:xlink="http://www.w3.org/1999/xlink" x="0px" y="0px"
	 viewBox="0 0 30 63" style="enable-background:new 0 0 30 63;" xml:space="preserve">
<style type="text/css">
	.st0{enable-background:new    ;}
	.st1{fill:#FFFFFF;}
	.st2{fill:none;stroke:#CBA5EA;stroke-width:2;}
</style>
<g class="st0">
	<path class="st1" d="M28.3,47.4c0,1.2-1,2.3-3.6,4.5c-2.3,1.8-3.6,4-5.2,4c-3.4,0-6.1-9.1-15.6-16.4c-1.3-1-1.8-1.8-1.8-2.8
		c0-1,0.4-2,1.5-2.9c11.9-8.9,17.1-18.2,20.8-18.2c1.2,0,2.8,1.2,2.8,2.8c0,3.6-6,5.5-11.6,10.7c-3.8,3.4-4.3,4.2-4.3,5.3
		C11.3,38.4,28.3,42.7,28.3,47.4z"/>
</g>
<g class="st0">
	<path class="st2" d="M28.3,44.9c0,1.2-1,2.3-3.6,4.5c-2.3,1.8-3.6,4-5.2,4c-3.4,0-6.1-9.1-15.6-16.4c-1.3-1-1.8-1.8-1.8-2.8
		c0-1,0.4-2,1.5-2.9c11.9-8.9,17.1-18.2,20.8-18.2c1.2,0,2.8,1.2,2.8,2.8c0,3.6-6,5.5-11.6,10.7c-3.8,3.4-4.3,4.2-4.3,5.3
		C11.3,36,28.3,40.2,28.3,44.9z"/>
</g>
</svg>
