<?xml version="1.0" encoding="utf-8"?>
<!-- Generator: Adobe Illustrator 26.0.0, SVG Export Plug-In . SVG Version: 6.00 Build 0)  -->
<svg version="1.1" id="Layer_1" xmlns="http://www.w3.org/2000/svg" xmlns:xlink="http://www.w3.org/1999/xlink" x="0px" y="0px"
	 viewBox="0 0 1070 287" style="enable-background:new 0 0 1070 287;" xml:space="preserve">
<style type="text/css">
	.st0{enable-background:new    ;}
	.st1{fill:#090809;}
	.st2{fill:none;stroke:#CBA5EA;stroke-width:2;}
	.st3{fill:#CBA5EA;}
	.st4{fill:none;stroke:#090809;stroke-width:2;}
</style>
<g class="st0">
	<path class="st1" d="M439.2,22c11.5,0,18.8,2.4,18.8,7.1c0,7.1-9.8,15.8-9.8,24.9c0,4.3,2.1,8.7,9,8.7c11.8,0,19.9-10.4,19.9-19.3
		c0-6.2-4.8-13.4-4.8-16.8c0-2.5,0.8-4.2,5-4.2c5.3,0,14.6,0.8,17.5,0.8c3.1,0,9.4-0.6,13-0.6c3.2,0,4.1,1.5,4.1,3.2
		c0,18.2-36.8,25.8-36.8,41.9c0,8.4,11.8,17.1,24.4,17.1c2.2,0,5.5-0.3,6.4-0.3c3.6,0,5,1.8,5,5.7c0,10.2-4.3,22.4-17.4,22.4
		c-13.3,0-17.9-7.7-20-22.5c-2-13.9-4.8-20.4-18.2-20.4c-7,0-12.2,2.5-12.2,8.5c0,12.6,22,21.8,22,30.1c0,2.5-1.4,4.1-3.5,4.1
		c-1.5,0-9.9-0.7-15.3-0.7c-6.3,0-12.3,0.4-16.2,0.4c-2.7,0-4.5-1.8-4.5-4.8c0-5.2,13.2-28.3,13.2-45.5c0-23.1-8.7-31.5-8.7-35.6
		C430.1,23.4,432.3,22,439.2,22z"/>
	<path class="st1" d="M550.8,107.4c0,3.2-1.8,4.6-5.3,4.6c-1.1,0-6-0.4-9.9-0.4c-4.6,0-10.4,0.4-13.2,0.4c-3.8,0-6.2-2.4-6.2-6
		c0-7.1,14.4-16.7,14.4-38.9c0-19.2-15.3-31.4-15.3-36.3c0-3.4,0.6-5.3,9.5-7.7c8.7-2.2,13.9-6,16.4-6c3.2,0,4.5,2.4,4.5,4.8
		c0,6.6-8,25.8-8,52.4C537.8,87.8,550.8,101.6,550.8,107.4z"/>
	<path class="st1" d="M628.2,41.6c0,3.9-3.9,16.7-3.9,23.5c0,17.5,9.5,35.4,9.5,41.7c0,2.4-1.8,5.2-4.2,5.2c-3.8,0-8.4-0.3-12.6-0.3
		c-3.1,0.1-6.2,0.4-8.7,0.4c-4.9,0-7-1.4-7-6.4c0-8.1,15.1-19,15.1-36.5c0-14.6-17.5-22.5-28.3-22.5c-7.8,0-13,5.9-13,26.3
		c0,20.2,3.4,24.4,9.9,24.4c5,0,7.7-3.6,8.8-12.9c1-8.3,2.2-10.6,6.6-10.6c3.2,0,4.9,1.8,4.9,4.6c0,10.8-16.5,34.9-31.1,34.9
		c-11.1,0-15.4-6.4-15.4-22.5c0-29.4,12.6-54.9,37.2-54.9c6.2,0,12.2,0.6,16.7,0.6c3.8,0,6.3-0.6,9.2-0.6
		C626.8,35.8,628.2,38.5,628.2,41.6z"/>
	<path class="st1" d="M667.7,113.1c-12.9,0-22.3-8.4-22.3-16c0-8.3,7-17.8,7-27.2c0-15.7-11.9-23.5-11.9-28.1s3-5.8,12.5-5.8
		c11.6,0,18.1,3.8,18.1,12c0,12.9-11.2,20.2-11.2,30.9c0,5.9,8.5,13.2,25.8,13.2c9.4,0,11.5-9.4,11.5-16.8
		c0-16.7-10.9-27.6-10.9-34.3c0-2.8,1.5-4.9,4.9-4.9c3.9,0,6.9,0.7,10.4,0.7c3.6,0,6.3-0.7,9.9-0.7c2.9,0,5,1.8,5,5.3
		c0,9.8-12,24.6-12,34.3c0.1,12.9,16.7,22.1,16.7,31.1c0,3.5-1.4,5.5-10.8,5.5c-10.6,0-13-0.4-14.7-9.1c-0.6-2.4-1.8-4.3-5.5-4.3
		C679.7,98.8,676.1,113.1,667.7,113.1z"/>
	<path class="st1" d="M775.8,24.2c9.4-1.4,16.7-7.1,20.4-7.1c3.5,0,4.6,2.4,4.6,5c0,5.2-8,28-8,43.3c0,17.5,7.3,37,7.3,41.6
		c0,3.5-1.3,5.3-4.8,5.3c-4.1,0-23.5-3.1-29.1-3.1c-8.4,0-16,3.5-24.4,3.5c-7.7,0-15.1-7-15.1-27.6c0-27.3,17.5-49.8,30.1-49.8
		c6,0,15.3,9.9,15.3,14.7c0,2.9-2,4.3-4.8,3.9c-3.6,0-12.6-3.9-15.7-3.9c-4.6,0-8,3.4-8,13.4c0,27.9,11.5,37.5,24.4,37.5
		c11.9,0,16.9-18.8,16.9-29.1c0-21-14-36.1-14-42.8C771,25.6,773.2,24.6,775.8,24.2z"/>
	<path class="st1" d="M842.8,107c0,3.5-1.5,5-4.5,5c-1.3,0-6.3-0.4-10.4-0.4c-5.3,0-11.9,0.4-14,0.4c-3.8,0-5.3-1.3-5.3-4.2
		c0-6.6,14.4-18.9,14.4-30.8c0-14.7-16.5-28.8-16.5-35c0-3.4,1.1-4.2,11.3-5.2c9-0.8,11.6-2.4,14.3-2.4c3.8,0,5.2,2,5.2,5.5
		c0,4.8-7.1,18.3-7.1,37.1C830.2,89.3,842.8,101.8,842.8,107z M808.4,11.6c0-2,1.3-3.8,4.6-3.8c2.1,0,5.7,1.8,13.6,1.8
		c3.2,0,5.7-0.1,7.4-0.1c3.4,0,4.8,1.5,4.8,4.1c0,6.6-9.7,13.2-16.1,13.2C815.9,26.7,808.4,17.2,808.4,11.6z"/>
	<path class="st1" d="M883.1,105.6c0,5.5-1.7,8-10.2,10.9c-9.5,3.8-21.3,10.9-28.7,10.9c-3.4,0-4.5-1-4.5-3.1c0-1.7,1-3.2,3.1-5
		c18.8-16.7,21.6-34.6,21.6-45.1c0-13.4-16.5-25.1-16.5-31.6c0-3.9,3.6-5,11.3-5.7c9.1-0.8,12.6-2.5,15.3-2.5s4.2,1.4,4.2,4.8
		c0,4.5-7.1,17.4-7.1,35.1C871.5,89.6,883.1,98.6,883.1,105.6z M849.7,13.6c0-2.5,1.4-4.1,4.8-4.1c1.7,0,4.2,0.1,7.4,0.1
		c7.8,0,11.5-1.8,13.6-1.8c3.4,0,4.6,1.8,4.6,3.8c0,5.6-7.6,15.1-14.3,15.1C859.3,26.7,849.7,20.2,849.7,13.6z"/>
	<path class="st1" d="M959.2,41.6c0,3.9-3.9,16.7-3.9,23.5c0,17.5,9.5,35.4,9.5,41.7c0,2.4-1.8,5.2-4.2,5.2c-3.8,0-8.4-0.3-12.6-0.3
		c-3.1,0.1-6.2,0.4-8.7,0.4c-4.9,0-7-1.4-7-6.4c0-8.1,15.1-19,15.1-36.5c0-14.6-17.5-22.5-28.3-22.5c-7.8,0-13,5.9-13,26.3
		c0,20.2,3.4,24.4,9.9,24.4c5,0,7.7-3.6,8.8-12.9c1-8.3,2.2-10.6,6.6-10.6c3.2,0,4.9,1.8,4.9,4.6c0,10.8-16.5,34.9-31.1,34.9
		c-11.1,0-15.4-6.4-15.4-22.5c0-29.4,12.6-54.9,37.2-54.9c6.2,0,12.2,0.6,16.7,0.6c3.8,0,6.3-0.6,9.2-0.6
		C957.8,35.8,959.2,38.5,959.2,41.6z"/>
	<path class="st1" d="M969.4,60.6c0-3.6,5.9-6.3,5.9-15.8c0-8.1-2.4-12.2-2.4-17.1c0-3.8,1.8-5,4.3-5c2.1,0,4.5,0.1,6.4,0.1
		c1.7,0,4.8-0.1,5.6-0.1c4.3,0,6,1.5,6,8.5c0,15.1-10.8,32.9-21.8,32.9C970.5,64.1,969.4,62.7,969.4,60.6z"/>
	<path class="st1" d="M1022.9,35.7c6.6,0,14,0.6,22.3,0.6c3.5,0,7.1-0.7,9.2-0.7c2.7,0,3.4,1.7,3.4,3.6c0,2.7-3.4,3.4-5.2,10.4
		c-1.7,6.4-2.9,8.8-6.6,8.8c-5.6,0-13.4-15.3-23.9-15.3c-3.9,0-6.6,2.5-6.6,6.4c0,15,42,16.5,42,38.6c0,13.6-14.3,25.2-30,25.2
		c-21,0-28.7-9.1-28.7-26c0-3.5,1.7-4.8,3.9-4.8c5.9,0,10.1,13.7,35.6,13.7c9,0,11.1-2.8,11.1-6.3c0-11.3-50-5.7-50-33.6
		C999.3,44.5,1007.5,35.7,1022.9,35.7z"/>
</g>
<g class="st0">
	<path class="st2" d="M444.2,17c11.5,0,18.8,2.4,18.8,7.1c0,7.1-9.8,15.8-9.8,24.9c0,4.3,2.1,8.7,9,8.7c11.8,0,19.9-10.4,19.9-19.3
		c0-6.2-4.8-13.4-4.8-16.8c0-2.5,0.8-4.2,5-4.2c5.3,0,14.6,0.8,17.5,0.8c3.1,0,9.4-0.6,13-0.6c3.2,0,4.1,1.5,4.1,3.2
		c0,18.2-36.8,25.8-36.8,41.9c0,8.4,11.8,17.1,24.4,17.1c2.2,0,5.5-0.3,6.4-0.3c3.6,0,5,1.8,5,5.7c0,10.2-4.3,22.4-17.4,22.4
		c-13.3,0-17.9-7.7-20-22.5c-2-13.9-4.8-20.4-18.2-20.4c-7,0-12.2,2.5-12.2,8.5c0,12.6,22,21.8,22,30.1c0,2.5-1.4,4.1-3.5,4.1
		c-1.5,0-9.9-0.7-15.3-0.7c-6.3,0-12.3,0.4-16.2,0.4c-2.7,0-4.5-1.8-4.5-4.8c0-5.2,13.2-28.3,13.2-45.5c0-23.1-8.7-31.5-8.7-35.6
		C435.1,18.4,437.3,17,444.2,17z"/>
	<path class="st2" d="M555.8,102.4c0,3.2-1.8,4.6-5.3,4.6c-1.1,0-6-0.4-9.9-0.4c-4.6,0-10.4,0.4-13.2,0.4c-3.8,0-6.2-2.4-6.2-6
		c0-7.1,14.4-16.7,14.4-38.9c0-19.2-15.3-31.4-15.3-36.3c0-3.4,0.6-5.3,9.5-7.7c8.7-2.2,13.9-6,16.4-6c3.2,0,4.5,2.4,4.5,4.8
		c0,6.6-8,25.8-8,52.4C542.8,82.8,555.8,96.6,555.8,102.4z"/>
	<path class="st2" d="M633.2,36.6c0,3.9-3.9,16.7-3.9,23.5c0,17.5,9.5,35.4,9.5,41.7c0,2.4-1.8,5.2-4.2,5.2c-3.8,0-8.4-0.3-12.6-0.3
		c-3.1,0.1-6.2,0.4-8.7,0.4c-4.9,0-7-1.4-7-6.4c0-8.1,15.1-19,15.1-36.5c0-14.6-17.5-22.5-28.3-22.5c-7.8,0-13,5.9-13,26.3
		c0,20.2,3.4,24.4,9.9,24.4c5,0,7.7-3.6,8.8-12.9c1-8.3,2.2-10.6,6.6-10.6c3.2,0,4.9,1.8,4.9,4.6c0,10.8-16.5,34.9-31.1,34.9
		c-11.1,0-15.4-6.4-15.4-22.5c0-29.4,12.6-54.9,37.2-54.9c6.2,0,12.2,0.6,16.7,0.6c3.8,0,6.3-0.6,9.2-0.6
		C631.8,30.8,633.2,33.5,633.2,36.6z"/>
	<path class="st2" d="M672.7,108.1c-12.9,0-22.3-8.4-22.3-16c0-8.3,7-17.8,7-27.2c0-15.7-11.9-23.5-11.9-28.1s3-5.8,12.5-5.8
		c11.6,0,18.1,3.8,18.1,12c0,12.9-11.2,20.2-11.2,30.9c0,5.9,8.5,13.2,25.8,13.2c9.4,0,11.5-9.4,11.5-16.8
		c0-16.7-10.9-27.6-10.9-34.3c0-2.8,1.5-4.9,4.9-4.9c3.9,0,6.9,0.7,10.4,0.7c3.6,0,6.3-0.7,9.9-0.7c2.9,0,5,1.8,5,5.3
		c0,9.8-12,24.6-12,34.3c0.1,12.9,16.7,22.1,16.7,31.1c0,3.5-1.4,5.5-10.8,5.5c-10.6,0-13-0.4-14.7-9.1c-0.6-2.4-1.8-4.3-5.5-4.3
		C684.7,93.8,681.1,108.1,672.7,108.1z"/>
	<path class="st2" d="M780.8,19.2c9.4-1.4,16.7-7.1,20.4-7.1c3.5,0,4.6,2.4,4.6,5c0,5.2-8,28-8,43.3c0,17.5,7.3,37,7.3,41.6
		c0,3.5-1.3,5.3-4.8,5.3c-4.1,0-23.5-3.1-29.1-3.1c-8.4,0-16,3.5-24.4,3.5c-7.7,0-15.1-7-15.1-27.6c0-27.3,17.5-49.8,30.1-49.8
		c6,0,15.3,9.9,15.3,14.7c0,2.9-2,4.3-4.8,3.9c-3.6,0-12.6-3.9-15.7-3.9c-4.6,0-8,3.4-8,13.4c0,27.9,11.5,37.5,24.4,37.5
		c11.9,0,16.9-18.8,16.9-29.1c0-21-14-36.1-14-42.8C776,20.6,778.2,19.6,780.8,19.2z"/>
	<path class="st2" d="M847.8,102c0,3.5-1.5,5-4.5,5c-1.3,0-6.3-0.4-10.4-0.4c-5.3,0-11.9,0.4-14,0.4c-3.8,0-5.3-1.3-5.3-4.2
		c0-6.6,14.4-18.9,14.4-30.8c0-14.7-16.5-28.8-16.5-35c0-3.4,1.1-4.2,11.3-5.2c9-0.8,11.6-2.4,14.3-2.4c3.8,0,5.2,2,5.2,5.5
		c0,4.8-7.1,18.3-7.1,37.1C835.2,84.3,847.8,96.8,847.8,102z M813.4,6.6c0-2,1.3-3.8,4.6-3.8c2.1,0,5.7,1.8,13.6,1.8
		c3.2,0,5.7-0.1,7.4-0.1c3.4,0,4.8,1.5,4.8,4.1c0,6.6-9.7,13.2-16.1,13.2C820.9,21.7,813.4,12.2,813.4,6.6z"/>
	<path class="st2" d="M888.1,100.6c0,5.5-1.7,8-10.2,10.9c-9.5,3.8-21.3,10.9-28.7,10.9c-3.4,0-4.5-1-4.5-3.1c0-1.7,1-3.2,3.1-5
		c18.8-16.7,21.6-34.6,21.6-45.1c0-13.4-16.5-25.1-16.5-31.6c0-3.9,3.6-5,11.3-5.7c9.1-0.8,12.6-2.5,15.3-2.5s4.2,1.4,4.2,4.8
		c0,4.5-7.1,17.4-7.1,35.1C876.5,84.6,888.1,93.6,888.1,100.6z M854.7,8.6c0-2.5,1.4-4.1,4.8-4.1c1.7,0,4.2,0.1,7.4,0.1
		c7.8,0,11.5-1.8,13.6-1.8c3.4,0,4.6,1.8,4.6,3.8c0,5.6-7.6,15.1-14.3,15.1C864.3,21.7,854.7,15.2,854.7,8.6z"/>
	<path class="st2" d="M964.2,36.6c0,3.9-3.9,16.7-3.9,23.5c0,17.5,9.5,35.4,9.5,41.7c0,2.4-1.8,5.2-4.2,5.2c-3.8,0-8.4-0.3-12.6-0.3
		c-3.1,0.1-6.2,0.4-8.7,0.4c-4.9,0-7-1.4-7-6.4c0-8.1,15.1-19,15.1-36.5c0-14.6-17.5-22.5-28.3-22.5c-7.8,0-13,5.9-13,26.3
		c0,20.2,3.4,24.4,9.9,24.4c5,0,7.7-3.6,8.8-12.9c1-8.3,2.2-10.6,6.6-10.6c3.2,0,4.9,1.8,4.9,4.6c0,10.8-16.5,34.9-31.1,34.9
		c-11.1,0-15.4-6.4-15.4-22.5c0-29.4,12.6-54.9,37.2-54.9c6.2,0,12.2,0.6,16.7,0.6c3.8,0,6.3-0.6,9.2-0.6
		C962.8,30.8,964.2,33.5,964.2,36.6z"/>
	<path class="st2" d="M974.4,55.6c0-3.6,5.9-6.3,5.9-15.8c0-8.1-2.4-12.2-2.4-17.1c0-3.8,1.8-5,4.3-5c2.1,0,4.5,0.1,6.4,0.1
		c1.7,0,4.8-0.1,5.6-0.1c4.3,0,6,1.5,6,8.5c0,15.1-10.8,32.9-21.8,32.9C975.5,59.1,974.4,57.7,974.4,55.6z"/>
	<path class="st2" d="M1027.9,30.7c6.6,0,14,0.6,22.3,0.6c3.5,0,7.1-0.7,9.2-0.7c2.7,0,3.4,1.7,3.4,3.6c0,2.7-3.4,3.4-5.2,10.4
		c-1.7,6.4-2.9,8.8-6.6,8.8c-5.6,0-13.4-15.3-23.9-15.3c-3.9,0-6.6,2.5-6.6,6.4c0,15,42,16.5,42,38.6c0,13.6-14.3,25.2-30,25.2
		c-21,0-28.7-9.1-28.7-26c0-3.5,1.7-4.8,3.9-4.8c5.9,0,10.1,13.7,35.6,13.7c9,0,11.1-2.8,11.1-6.3c0-11.3-50-5.7-50-33.6
		C1004.3,39.5,1012.5,30.7,1027.9,30.7z"/>
</g>
<g class="st0">
	<path class="st3" d="M45.5,152.7c7.4,0,19.6,3.5,29.4,3.5c10.4,0,20.6-4.6,26.9-4.6c9,0,15.7,6.6,15.7,27.6
		c0,22.7-10.8,39.8-30.2,39.8c-9.9,0-17.1-5.3-17.1-15.7c0-10.6,7.8-16.4,15.7-16.4c2.1,0,3.4,0.8,3.4,3.2c0,2.1-1,3.8-1,8
		c0,6.3,3.9,8.7,8.1,8.7c6.2,0,9.2-3.4,9.2-11.3c0-15.5-10.8-29.4-26.9-29.4c-9,0-19.2,4.3-19.2,30c0,26.2,21.4,34.9,21.4,42.6
		c0,2.2-1.5,3.9-3.5,3.9c-1.3,0-11.1-0.6-18.5-0.6c-5.2,0-11.5,0.7-14.8,0.7c-2,0-3.8-0.8-3.8-3.8c0-6.4,12.7-25.2,12.7-45.5
		c0-19.6-12.6-30.4-12.6-36.1C40.4,154.5,41.8,152.7,45.5,152.7z"/>
	<path class="st3" d="M159.1,166.7c6.2,0,11.9-1.7,17.4-1.7c13.9,0,17.1,19.9,17.1,31.6c0,31.4-16,46.5-34.4,46.5
		c-18.2,0-36.4-15.1-36.4-44.8c0-7,2.8-33.3,18.1-33.3C147.2,165,153,166.7,159.1,166.7z M144.3,179.4c-9.1,0-12.3,3.5-12.3,11.6
		c0,19.3,16.9,33.2,37.8,33.2c9.1,0,13.2-5.3,13.2-12.7C182.9,195.7,169.6,179.4,144.3,179.4z"/>
	<path class="st3" d="M253.6,187.3c0,4.8-0.6,8.5-5.2,8.5c-3.5,0-10.1-2-16.2-2c-7.8,0-10.4,5.3-10.4,9.2c0,13.4,18.6,25.8,18.6,34
		c0,2.7-1.3,5.2-4.1,5.2c-7,0-12.3-0.7-18.3-0.7c-5.3,0-9.1,0.7-13.3,0.7c-2.7,0-4.6-1.5-4.6-4.5c0-10.1,14.4-25.2,14.4-35.1
		c0-13.2-15.8-24.6-15.8-31.8c0-3.2,2.4-4.8,4.6-4.8c1.8,0,6.2,0.3,9,0.3c2.7,0,5-0.3,7.1-0.3c2.7,0,4.1,2,4.1,5.2
		c0,3.8-2,9.9-2,13.7c0,2,0.8,3.4,2.8,3.4c4.3,0,7.3-1,11.8-9.5c6.4-12.2,8.7-13,13.9-13c4.6,0,5.5,0.3,5.5,5
		C255.5,174.8,253.6,182.5,253.6,187.3z"/>
	<path class="st3" d="M293.8,225.1c2.7,0,3.9-0.3,5-0.3c3.1,0,3.8,2.4,3.8,4.2c0,5.2-6.7,14.3-22.1,14.3c-10.2,0-16.8-2.9-16.8-10.4
		c0-12.7,9.7-23.8,9.7-44.5c0-7.4-1.1-8.1-4.6-8.1c-1.7,0-5,0.4-6.9,0.4c-2.8,0-4.2-1.3-4.2-2.5c0-5.5,5.5-8.3,11.2-20.2
		c4.2-8.7,5.9-10.9,9-10.9c2.7,0,3.6,1.8,3.6,3.8c0,3.5-2.2,9.1-2.2,12.3c0,2.5,1.3,3.2,3.6,3.2c5.5,0,10.6-0.3,12.6-0.3
		c4.5,0,5.9,1.3,5.9,5.2c0,7.7-1.3,10.1-5.9,10.1c-3.2,0-7.1-1.4-9.5-1.4c-2.8,0-4.5,1.4-4.5,5C281.5,216.1,284.4,225.1,293.8,225.1
		z"/>
	<path class="st3" d="M343.4,166.7c6.2,0,11.9-1.7,17.4-1.7c13.9,0,17.1,19.9,17.1,31.6c0,31.4-16,46.5-34.4,46.5
		c-18.2,0-36.4-15.1-36.4-44.8c0-7,2.8-33.3,18.1-33.3C331.5,165,337.2,166.7,343.4,166.7z M328.5,179.4c-9.1,0-12.3,3.5-12.3,11.6
		c0,19.3,16.9,33.2,37.8,33.2c9.1,0,13.2-5.3,13.2-12.7C367.2,195.7,353.9,179.4,328.5,179.4z"/>
	<path class="st3" d="M385,165.3c0-9.2,7.1-17.1,18.1-17.1c2.7,0,7.1,0.7,11.3,0.7c3.5,0,7.1-1.3,9.4-1.3c1.8,0,3.4,1.1,3.4,3.5
		c0,6.3-4.1,13.6-9,13.6c-4.2,0-10.4-3.9-18.5-3.9c-5.9,0-7,2.9-7,5.7c0,6.2,2.1,10.4,8.5,10.4c6.7,0,18.2-3.5,20.7-3.5
		c2.7,0,3.5,1.1,3.5,4.3c0,8.5-2,13.6-5.2,13.6c-3.8,0-11.3-2.2-15.7-2.2c-2.1,0-3.9,1.4-3.9,4.2c0,21.6,20.6,37.1,20.6,44
		c0,3.4-1.7,4.8-4.9,4.8c-1.5,0-10.8-0.4-16-0.4c-4.2,0-8.8,0.4-11.5,0.4c-3.8,0-6.2-2.5-6.2-6.3c0-7.1,10.5-26.3,10.5-41.7
		C393.2,182.5,385,177.3,385,165.3z"/>
	<path class="st3" d="M466,166.7c6.2,0,11.9-1.7,17.4-1.7c13.9,0,17.1,19.9,17.1,31.6c0,31.4-16,46.5-34.4,46.5
		c-18.2,0-36.4-15.1-36.4-44.8c0-7,2.8-33.3,18.1-33.3C454.1,165,459.9,166.7,466,166.7z M451.2,179.4c-9.1,0-12.3,3.5-12.3,11.6
		c0,19.3,16.9,33.2,37.8,33.2c9.1,0,13.2-5.3,13.2-12.7C489.8,195.7,476.5,179.4,451.2,179.4z"/>
	<path class="st3" d="M541.5,237.4c0,3.2-1.8,4.6-5.3,4.6c-1.1,0-6-0.4-9.9-0.4c-4.6,0-10.4,0.4-13.2,0.4c-3.8,0-6.2-2.4-6.2-6
		c0-7.1,14.4-16.7,14.4-38.9c0-19.2-15.3-31.4-15.3-36.3c0-3.4,0.6-5.3,9.5-7.7c8.7-2.2,13.9-6,16.4-6c3.2,0,4.5,2.4,4.5,4.8
		c0,6.6-8,25.8-8,52.4C528.5,217.8,541.5,231.6,541.5,237.4z"/>
	<path class="st3" d="M582.4,237c0,3.5-1.5,5-4.5,5c-1.3,0-6.3-0.4-10.4-0.4c-5.3,0-11.9,0.4-14,0.4c-3.8,0-5.3-1.3-5.3-4.2
		c0-6.6,14.4-18.9,14.4-30.8c0-14.7-16.5-28.8-16.5-35c0-3.4,1.1-4.2,11.3-5.2c9-0.8,11.6-2.4,14.3-2.4c3.8,0,5.2,2,5.2,5.5
		c0,4.8-7.1,18.3-7.1,37.1C569.8,219.3,582.4,231.8,582.4,237z M547.9,141.6c0-2,1.3-3.8,4.6-3.8c2.1,0,5.7,1.8,13.6,1.8
		c3.2,0,5.7-0.1,7.4-0.1c3.4,0,4.8,1.5,4.8,4.1c0,6.6-9.7,13.2-16.1,13.2C555.5,156.7,547.9,147.2,547.9,141.6z"/>
	<path class="st3" d="M625.1,166.7c6.2,0,11.9-1.7,17.4-1.7c13.9,0,17.1,19.9,17.1,31.6c0,31.4-16,46.5-34.4,46.5
		c-18.2,0-36.4-15.1-36.4-44.8c0-7,2.8-33.3,18.1-33.3C613.2,165,618.9,166.7,625.1,166.7z M610.2,179.4c-9.1,0-12.3,3.5-12.3,11.6
		c0,19.3,16.9,33.2,37.8,33.2c9.1,0,13.2-5.3,13.2-12.7C648.9,195.7,635.6,179.4,610.2,179.4z"/>
</g>
<g class="st0">
	<path class="st4" d="M57.5,160.7c7.4,0,19.6,3.5,29.4,3.5c10.4,0,20.6-4.6,26.9-4.6c9,0,15.7,6.6,15.7,27.6
		c0,22.7-10.8,39.8-30.2,39.8c-9.9,0-17.1-5.3-17.1-15.7c0-10.6,7.8-16.4,15.7-16.4c2.1,0,3.4,0.8,3.4,3.2c0,2.1-1,3.8-1,8
		c0,6.3,3.9,8.7,8.1,8.7c6.2,0,9.2-3.4,9.2-11.3c0-15.5-10.8-29.4-26.9-29.4c-9,0-19.2,4.3-19.2,30c0,26.2,21.4,34.9,21.4,42.6
		c0,2.2-1.5,3.9-3.5,3.9c-1.3,0-11.1-0.6-18.5-0.6c-5.2,0-11.5,0.7-14.8,0.7c-2,0-3.8-0.8-3.8-3.8c0-6.4,12.7-25.2,12.7-45.5
		c0-19.6-12.6-30.4-12.6-36.1C52.4,162.5,53.8,160.7,57.5,160.7z"/>
	<path class="st4" d="M171.1,174.7c6.2,0,11.9-1.7,17.4-1.7c13.9,0,17.1,19.9,17.1,31.6c0,31.4-16,46.5-34.4,46.5
		c-18.2,0-36.4-15.1-36.4-44.8c0-7,2.8-33.3,18.1-33.3C159.2,173,165,174.7,171.1,174.7z M156.3,187.4c-9.1,0-12.3,3.5-12.3,11.6
		c0,19.3,16.9,33.2,37.8,33.2c9.1,0,13.2-5.3,13.2-12.7C194.9,203.7,181.6,187.4,156.3,187.4z"/>
	<path class="st4" d="M265.6,195.3c0,4.8-0.6,8.5-5.2,8.5c-3.5,0-10.1-2-16.2-2c-7.8,0-10.4,5.3-10.4,9.2c0,13.4,18.6,25.8,18.6,34
		c0,2.7-1.3,5.2-4.1,5.2c-7,0-12.3-0.7-18.3-0.7c-5.3,0-9.1,0.7-13.3,0.7c-2.7,0-4.6-1.5-4.6-4.5c0-10.1,14.4-25.2,14.4-35.1
		c0-13.2-15.8-24.6-15.8-31.8c0-3.2,2.4-4.8,4.6-4.8c1.8,0,6.2,0.3,9,0.3c2.7,0,5-0.3,7.1-0.3c2.7,0,4.1,2,4.1,5.2
		c0,3.8-2,9.9-2,13.7c0,2,0.8,3.4,2.8,3.4c4.3,0,7.3-1,11.8-9.5c6.4-12.2,8.7-13,13.9-13c4.6,0,5.5,0.3,5.5,5
		C267.5,182.8,265.6,190.5,265.6,195.3z"/>
	<path class="st4" d="M305.8,233.1c2.7,0,3.9-0.3,5-0.3c3.1,0,3.8,2.4,3.8,4.2c0,5.2-6.7,14.3-22.1,14.3c-10.2,0-16.8-2.9-16.8-10.4
		c0-12.7,9.7-23.8,9.7-44.5c0-7.4-1.1-8.1-4.6-8.1c-1.7,0-5,0.4-6.9,0.4c-2.8,0-4.2-1.3-4.2-2.5c0-5.5,5.5-8.3,11.2-20.2
		c4.2-8.7,5.9-10.9,9-10.9c2.7,0,3.6,1.8,3.6,3.8c0,3.5-2.2,9.1-2.2,12.3c0,2.5,1.3,3.2,3.6,3.2c5.5,0,10.6-0.3,12.6-0.3
		c4.5,0,5.9,1.3,5.9,5.2c0,7.7-1.3,10.1-5.9,10.1c-3.2,0-7.1-1.4-9.5-1.4c-2.8,0-4.5,1.4-4.5,5C293.5,224.1,296.4,233.1,305.8,233.1
		z"/>
	<path class="st4" d="M355.4,174.7c6.2,0,11.9-1.7,17.4-1.7c13.9,0,17.1,19.9,17.1,31.6c0,31.4-16,46.5-34.4,46.5
		c-18.2,0-36.4-15.1-36.4-44.8c0-7,2.8-33.3,18.1-33.3C343.5,173,349.2,174.7,355.4,174.7z M340.5,187.4c-9.1,0-12.3,3.5-12.3,11.6
		c0,19.3,16.9,33.2,37.8,33.2c9.1,0,13.2-5.3,13.2-12.7C379.2,203.7,365.9,187.4,340.5,187.4z"/>
	<path class="st4" d="M397,173.3c0-9.2,7.1-17.1,18.1-17.1c2.7,0,7.1,0.7,11.3,0.7c3.5,0,7.1-1.3,9.4-1.3c1.8,0,3.4,1.1,3.4,3.5
		c0,6.3-4.1,13.6-9,13.6c-4.2,0-10.4-3.9-18.5-3.9c-5.9,0-7,2.9-7,5.7c0,6.2,2.1,10.4,8.5,10.4c6.7,0,18.2-3.5,20.7-3.5
		c2.7,0,3.5,1.1,3.5,4.3c0,8.5-2,13.6-5.2,13.6c-3.8,0-11.3-2.2-15.7-2.2c-2.1,0-3.9,1.4-3.9,4.2c0,21.6,20.6,37.1,20.6,44
		c0,3.4-1.7,4.8-4.9,4.8c-1.5,0-10.8-0.4-16-0.4c-4.2,0-8.8,0.4-11.5,0.4c-3.8,0-6.2-2.5-6.2-6.3c0-7.1,10.5-26.3,10.5-41.7
		C405.2,190.5,397,185.3,397,173.3z"/>
	<path class="st4" d="M478,174.7c6.2,0,11.9-1.7,17.4-1.7c13.9,0,17.1,19.9,17.1,31.6c0,31.4-16,46.5-34.4,46.5
		c-18.2,0-36.4-15.1-36.4-44.8c0-7,2.8-33.3,18.1-33.3C466.1,173,471.9,174.7,478,174.7z M463.2,187.4c-9.1,0-12.3,3.5-12.3,11.6
		c0,19.3,16.9,33.2,37.8,33.2c9.1,0,13.2-5.3,13.2-12.7C501.8,203.7,488.5,187.4,463.2,187.4z"/>
	<path class="st4" d="M553.5,245.4c0,3.2-1.8,4.6-5.3,4.6c-1.1,0-6-0.4-9.9-0.4c-4.6,0-10.4,0.4-13.2,0.4c-3.8,0-6.2-2.4-6.2-6
		c0-7.1,14.4-16.7,14.4-38.9c0-19.2-15.3-31.4-15.3-36.3c0-3.4,0.6-5.3,9.5-7.7c8.7-2.2,13.9-6,16.4-6c3.2,0,4.5,2.4,4.5,4.8
		c0,6.6-8,25.8-8,52.4C540.5,225.8,553.5,239.6,553.5,245.4z"/>
	<path class="st4" d="M594.4,245c0,3.5-1.5,5-4.5,5c-1.3,0-6.3-0.4-10.4-0.4c-5.3,0-11.9,0.4-14,0.4c-3.8,0-5.3-1.3-5.3-4.2
		c0-6.6,14.4-18.9,14.4-30.8c0-14.7-16.5-28.8-16.5-35c0-3.4,1.1-4.2,11.3-5.2c9-0.8,11.6-2.4,14.3-2.4c3.8,0,5.2,2,5.2,5.5
		c0,4.8-7.1,18.3-7.1,37.1C581.8,227.3,594.4,239.8,594.4,245z M559.9,149.6c0-2,1.3-3.8,4.6-3.8c2.1,0,5.7,1.8,13.6,1.8
		c3.2,0,5.7-0.1,7.4-0.1c3.4,0,4.8,1.5,4.8,4.1c0,6.6-9.7,13.2-16.1,13.2C567.5,164.7,559.9,155.2,559.9,149.6z"/>
	<path class="st4" d="M637.1,174.7c6.2,0,11.9-1.7,17.4-1.7c13.9,0,17.1,19.9,17.1,31.6c0,31.4-16,46.5-34.4,46.5
		c-18.2,0-36.4-15.1-36.4-44.8c0-7,2.8-33.3,18.1-33.3C625.2,173,630.9,174.7,637.1,174.7z M622.2,187.4c-9.1,0-12.3,3.5-12.3,11.6
		c0,19.3,16.9,33.2,37.8,33.2c9.1,0,13.2-5.3,13.2-12.7C660.9,203.7,647.6,187.4,622.2,187.4z"/>
</g>
</svg>
