<?xml version="1.0" encoding="utf-8"?>
<!-- Generator: Adobe Illustrator 25.4.1, SVG Export Plug-In . SVG Version: 6.00 Build 0)  -->
<svg version="1.1" xmlns="http://www.w3.org/2000/svg" xmlns:xlink="http://www.w3.org/1999/xlink" x="0px" y="0px"
	 viewBox="0 0 293 129" style="enable-background:new 0 0 293 129;" xml:space="preserve">
<style type="text/css">
	.st0{enable-background:new    ;}
	.st1{fill:#FFFFFF;}
	.st2{fill:#CBA5EA;}
	.st3{fill:none;stroke:#CBA5EA;stroke-width:1.5;}
	.st4{fill:none;stroke:#FFFFFF;stroke-width:1.5;}
</style>
<g id="Layer_1">
	<g class="st0">
		<path class="st1" d="M7.6,12.7c4.9,0,8,1,8,3.1c0,3.1-4.2,6.8-4.2,10.7c0,1.9,0.9,3.7,3.8,3.7c5,0,8.5-4.4,8.5-8.3
			c0-2.6-2-5.8-2-7.2c0-1.1,0.4-1.8,2.2-1.8c2.3,0,6.2,0.4,7.5,0.4c1.3,0,4-0.2,5.6-0.2c1.4,0,1.7,0.7,1.7,1.4
			c0,7.8-15.8,11-15.8,17.9c0,3.6,5,7.3,10.4,7.3c1,0,2.3-0.1,2.8-0.1c1.6,0,2.2,0.8,2.2,2.5c0,4.4-1.9,9.6-7.4,9.6
			c-5.7,0-7.7-3.3-8.6-9.7c-0.8-5.9-2-8.8-7.8-8.8c-3,0-5.2,1.1-5.2,3.7c0,5.4,9.4,9.4,9.4,12.9c0,1.1-0.6,1.7-1.5,1.7
			c-0.7,0-4.3-0.3-6.5-0.3c-2.7,0-5.3,0.2-7,0.2c-1.1,0-1.9-0.8-1.9-2c0-2.2,5.6-12.1,5.6-19.5c0-9.9-3.7-13.5-3.7-15.2
			C3.7,13.3,4.7,12.7,7.6,12.7z"/>
		<path class="st1" d="M56.4,49.3c0,1.4-0.8,2-2.3,2c-0.5,0-2.6-0.2-4.3-0.2c-2,0-4.4,0.2-5.6,0.2c-1.6,0-2.6-1-2.6-2.6
			c0-3.1,6.2-7.1,6.2-16.7c0-8.2-6.5-13.4-6.5-15.5c0-1.4,0.2-2.3,4.1-3.3c3.7-1,5.9-2.6,7-2.6c1.4,0,1.9,1,1.9,2
			c0,2.8-3.4,11-3.4,22.4C50.8,40.9,56.4,46.8,56.4,49.3z"/>
		<path class="st1" d="M90.5,21.1c0,1.7-1.7,7.1-1.7,10.1c0,7.5,4.1,15.2,4.1,17.9c0,1-0.8,2.2-1.8,2.2c-1.6,0-3.6-0.1-5.4-0.1
			c-1.3,0.1-2.6,0.2-3.7,0.2c-2.1,0-3-0.6-3-2.8c0-3.5,6.5-8.2,6.5-15.7c0-6.2-7.5-9.7-12.1-9.7c-3.4,0-5.6,2.5-5.6,11.3
			c0,8.6,1.4,10.4,4.3,10.4c2.2,0,3.3-1.6,3.8-5.5c0.4-3.5,1-4.6,2.8-4.6c1.4,0,2.1,0.8,2.1,2c0,4.6-7.1,14.9-13.3,14.9
			c-4.7,0-6.6-2.8-6.6-9.7c0-12.6,5.4-23.5,16-23.5c2.6,0,5.2,0.2,7.1,0.2c1.6,0,2.7-0.2,4-0.2C89.9,18.6,90.5,19.7,90.5,21.1z"/>
		<path class="st1" d="M108.4,51.7c-5.5,0-9.5-3.6-9.5-6.8c0-3.5,3-7.6,3-11.6c0-6.7-5.1-10.1-5.1-12.1c0-2,1.3-2.5,5.3-2.5
			c5,0,7.7,1.6,7.7,5.2c0,5.5-4.8,8.6-4.8,13.3c0,2.5,3.7,5.6,11,5.6c4,0,4.9-4,4.9-7.2c0-7.1-4.7-11.8-4.7-14.7
			c0-1.2,0.7-2.1,2.1-2.1c1.7,0,2.9,0.3,4.4,0.3c1.6,0,2.7-0.3,4.3-0.3c1.3,0,2.2,0.8,2.2,2.3c0,4.2-5.2,10.6-5.2,14.7
			c0.1,5.5,7.1,9.5,7.1,13.3c0,1.5-0.6,2.3-4.6,2.3c-4.6,0-5.6-0.2-6.3-3.9c-0.2-1-0.8-1.9-2.3-1.9C113.6,45.6,112,51.7,108.4,51.7z
			"/>
		<path class="st1" d="M155.7,13.6c4-0.6,7.1-3.1,8.8-3.1c1.5,0,2,1,2,2.2c0,2.2-3.4,12-3.4,18.5c0,7.5,3.1,15.8,3.1,17.8
			c0,1.5-0.5,2.3-2,2.3c-1.7,0-10.1-1.3-12.5-1.3c-3.6,0-6.8,1.5-10.4,1.5c-3.3,0-6.5-3-6.5-11.8c0-11.7,7.5-21.4,12.9-21.4
			c2.6,0,6.5,4.3,6.5,6.3c0,1.3-0.8,1.9-2,1.7c-1.6,0-5.4-1.7-6.7-1.7c-2,0-3.4,1.4-3.4,5.8c0,11.9,4.9,16.1,10.4,16.1
			c5.1,0,7.3-8,7.3-12.5c0-9-6-15.5-6-18.4C153.6,14.2,154.6,13.8,155.7,13.6z"/>
		<path class="st1" d="M185.4,49.1c0,1.5-0.7,2.2-1.9,2.2c-0.5,0-2.7-0.2-4.4-0.2c-2.3,0-5.1,0.2-6,0.2c-1.6,0-2.3-0.5-2.3-1.8
			c0-2.8,6.2-8.1,6.2-13.2c0-6.3-7.1-12.4-7.1-15c0-1.4,0.5-1.8,4.9-2.2c3.8-0.4,5-1,6.1-1c1.6,0,2.2,0.8,2.2,2.3
			c0,2-3.1,7.9-3.1,15.9C180,41.5,185.4,46.9,185.4,49.1z M170.6,8.2c0-0.8,0.5-1.6,2-1.6c0.9,0,2.5,0.8,5.8,0.8
			c1.4,0,2.5-0.1,3.2-0.1c1.4,0,2,0.7,2,1.7c0,2.8-4.1,5.6-6.9,5.6C173.9,14.7,170.6,10.6,170.6,8.2z"/>
		<path class="st1" d="M203.6,48.5c0,2.3-0.7,3.4-4.4,4.7c-4.1,1.6-9.1,4.7-12.3,4.7c-1.4,0-1.9-0.4-1.9-1.3c0-0.7,0.4-1.4,1.3-2.2
			c8-7.1,9.2-14.8,9.2-19.3c0-5.8-7.1-10.7-7.1-13.6c0-1.7,1.6-2.2,4.9-2.5c3.9-0.4,5.4-1.1,6.5-1.1c1.1,0,1.8,0.6,1.8,2
			c0,1.9-3.1,7.4-3.1,15.1C198.6,41.6,203.6,45.5,203.6,48.5z M189.3,9.1c0-1.1,0.6-1.7,2-1.7c0.7,0,1.8,0.1,3.2,0.1
			c3.4,0,4.9-0.8,5.8-0.8c1.4,0,2,0.8,2,1.6c0,2.4-3.2,6.5-6.1,6.5C193.4,14.7,189.3,11.9,189.3,9.1z"/>
		<path class="st1" d="M237.2,21.1c0,1.7-1.7,7.1-1.7,10.1c0,7.5,4.1,15.2,4.1,17.9c0,1-0.8,2.2-1.8,2.2c-1.6,0-3.6-0.1-5.4-0.1
			c-1.3,0.1-2.6,0.2-3.7,0.2c-2.1,0-3-0.6-3-2.8c0-3.5,6.5-8.2,6.5-15.7c0-6.2-7.5-9.7-12.1-9.7c-3.4,0-5.6,2.5-5.6,11.3
			c0,8.6,1.4,10.4,4.3,10.4c2.2,0,3.3-1.6,3.8-5.5c0.4-3.5,1-4.6,2.8-4.6c1.4,0,2.1,0.8,2.1,2c0,4.6-7.1,14.9-13.3,14.9
			c-4.7,0-6.6-2.8-6.6-9.7c0-12.6,5.4-23.5,16-23.5c2.6,0,5.2,0.2,7.1,0.2c1.6,0,2.7-0.2,4-0.2C236.6,18.6,237.2,19.7,237.2,21.1z"
			/>
		<path class="st1" d="M242.5,29.2c0-1.6,2.5-2.7,2.5-6.8c0-3.5-1-5.2-1-7.3c0-1.6,0.8-2.2,1.9-2.2c0.9,0,1.9,0.1,2.8,0.1
			c0.7,0,2-0.1,2.4-0.1c1.9,0,2.6,0.7,2.6,3.7c0,6.5-4.6,14.1-9.4,14.1C243,30.7,242.5,30.1,242.5,29.2z"/>
		<path class="st1" d="M266.4,18.5c2.8,0,6,0.2,9.5,0.2c1.5,0,3.1-0.3,4-0.3c1.1,0,1.4,0.7,1.4,1.6c0,1.1-1.4,1.4-2.2,4.4
			c-0.7,2.8-1.3,3.8-2.8,3.8c-2.4,0-5.8-6.5-10.3-6.5c-1.7,0-2.8,1.1-2.8,2.8c0,6.4,18,7.1,18,16.6c0,5.8-6.1,10.8-12.8,10.8
			c-9,0-12.3-3.9-12.3-11.2c0-1.5,0.7-2,1.7-2c2.5,0,4.3,5.9,15.2,5.9c3.8,0,4.7-1.2,4.7-2.7c0-4.9-21.4-2.5-21.4-14.4
			C256.3,22.3,259.8,18.5,266.4,18.5z"/>
	</g>
	<g class="st0">
		<path class="st2" d="M4.2,71.3c3.2,0,8.4,1.5,12.6,1.5c4.4,0,8.8-2,11.5-2c3.8,0,6.7,2.8,6.7,11.8c0,9.7-4.6,17-13,17
			c-4.3,0-7.3-2.3-7.3-6.7c0-4.6,3.4-7,6.7-7c0.9,0,1.4,0.4,1.4,1.4c0,0.9-0.4,1.6-0.4,3.4c0,2.7,1.7,3.7,3.5,3.7c2.6,0,4-1.4,4-4.9
			C29.9,83,25.3,77,18.4,77c-3.8,0-8.2,1.9-8.2,12.8c0,11.2,9.2,14.9,9.2,18.2c0,1-0.7,1.7-1.5,1.7c-0.5,0-4.7-0.2-7.9-0.2
			c-2.2,0-4.9,0.3-6.4,0.3c-0.8,0-1.6-0.4-1.6-1.6c0-2.8,5.5-10.8,5.5-19.5c0-8.4-5.4-13-5.4-15.5C2,72.1,2.6,71.3,4.2,71.3z"/>
		<path class="st2" d="M53.8,77.3c2.6,0,5.1-0.7,7.4-0.7c5.9,0,7.3,8.5,7.3,13.6c0,13.4-6.8,19.9-14.8,19.9
			c-7.8,0-15.6-6.5-15.6-19.2c0-3,1.2-14.3,7.7-14.3C48.7,76.6,51.2,77.3,53.8,77.3z M47.5,82.8c-3.9,0-5.3,1.5-5.3,5
			c0,8.3,7.3,14.2,16.2,14.2c3.9,0,5.6-2.3,5.6-5.5C64,89.8,58.3,82.8,47.5,82.8z"/>
		<path class="st2" d="M95.3,86.2c0,2-0.2,3.7-2.2,3.7c-1.5,0-4.3-0.8-7-0.8c-3.4,0-4.4,2.3-4.4,4c0,5.8,8,11,8,14.6
			c0,1.1-0.5,2.2-1.7,2.2c-3,0-5.3-0.3-7.9-0.3c-2.3,0-3.9,0.3-5.7,0.3c-1.1,0-2-0.7-2-1.9c0-4.3,6.2-10.8,6.2-15.1
			c0-5.6-6.8-10.6-6.8-13.6c0-1.4,1-2,2-2c0.8,0,2.6,0.1,3.8,0.1c1.1,0,2.2-0.1,3.1-0.1c1.1,0,1.7,0.8,1.7,2.2
			c0,1.6-0.8,4.3-0.8,5.9c0,0.8,0.4,1.4,1.2,1.4c1.9,0,3.1-0.4,5-4.1c2.8-5.2,3.7-5.6,5.9-5.6c2,0,2.3,0.1,2.3,2.2
			C96.1,80.8,95.3,84.1,95.3,86.2z"/>
		<path class="st2" d="M113.5,102.4c1.1,0,1.7-0.1,2.2-0.1c1.3,0,1.6,1,1.6,1.8c0,2.2-2.9,6.1-9.5,6.1c-4.4,0-7.2-1.3-7.2-4.4
			c0-5.5,4.1-10.2,4.1-19.1c0-3.2-0.5-3.5-2-3.5c-0.7,0-2.2,0.2-2.9,0.2c-1.2,0-1.8-0.5-1.8-1.1c0-2.3,2.3-3.5,4.8-8.6
			c1.8-3.7,2.5-4.7,3.8-4.7c1.1,0,1.6,0.8,1.6,1.6c0,1.5-1,3.9-1,5.3c0,1.1,0.5,1.4,1.6,1.4c2.3,0,4.6-0.1,5.4-0.1
			c1.9,0,2.5,0.5,2.5,2.2c0,3.3-0.5,4.3-2.5,4.3c-1.4,0-3.1-0.6-4.1-0.6c-1.2,0-1.9,0.6-1.9,2.2C108.2,98.5,109.5,102.4,113.5,102.4
			z"/>
		<path class="st2" d="M120.7,76.7c0-4,3.1-7.3,7.7-7.3c1.1,0,3.1,0.3,4.9,0.3c1.5,0,3.1-0.5,4-0.5c0.8,0,1.4,0.5,1.4,1.5
			c0,2.7-1.7,5.8-3.8,5.8c-1.8,0-4.4-1.7-7.9-1.7c-2.5,0-3,1.3-3,2.5c0,2.6,0.9,4.4,3.7,4.4c2.9,0,7.8-1.5,8.9-1.5
			c1.1,0,1.5,0.5,1.5,1.9c0,3.7-0.8,5.8-2.2,5.8c-1.6,0-4.9-1-6.7-1c-0.9,0-1.7,0.6-1.7,1.8c0,9.2,8.8,15.9,8.8,18.8
			c0,1.4-0.7,2-2.1,2c-0.7,0-4.6-0.2-6.8-0.2c-1.8,0-3.8,0.2-4.9,0.2c-1.6,0-2.6-1.1-2.6-2.7c0-3.1,4.5-11.3,4.5-17.9
			C124.3,84.1,120.7,81.9,120.7,76.7z"/>
		<path class="st2" d="M156.4,77.3c2.6,0,5.1-0.7,7.4-0.7c5.9,0,7.3,8.5,7.3,13.6c0,13.4-6.8,19.9-14.8,19.9
			c-7.8,0-15.6-6.5-15.6-19.2c0-3,1.2-14.3,7.7-14.3C151.3,76.6,153.8,77.3,156.4,77.3z M150.1,82.8c-3.9,0-5.3,1.5-5.3,5
			c0,8.3,7.3,14.2,16.2,14.2c3.9,0,5.6-2.3,5.6-5.5C166.6,89.8,160.9,82.8,150.1,82.8z"/>
		<path class="st2" d="M189.7,107.6c0,1.4-0.8,2-2.3,2c-0.5,0-2.6-0.2-4.3-0.2c-2,0-4.4,0.2-5.6,0.2c-1.6,0-2.6-1-2.6-2.6
			c0-3.1,6.2-7.1,6.2-16.7c0-8.2-6.5-13.4-6.5-15.5c0-1.4,0.2-2.3,4.1-3.3c3.7-1,5.9-2.6,7-2.6c1.4,0,1.9,1,1.9,2
			c0,2.8-3.4,11-3.4,22.4C184.2,99.2,189.7,105.2,189.7,107.6z"/>
		<path class="st2" d="M208.2,107.5c0,1.5-0.7,2.2-1.9,2.2c-0.5,0-2.7-0.2-4.4-0.2c-2.3,0-5.1,0.2-6,0.2c-1.6,0-2.3-0.5-2.3-1.8
			c0-2.8,6.2-8.1,6.2-13.2c0-6.3-7.1-12.4-7.1-15c0-1.4,0.5-1.8,4.9-2.2c3.8-0.4,5-1,6.1-1c1.6,0,2.2,0.8,2.2,2.3
			c0,2-3.1,7.9-3.1,15.9C202.8,99.9,208.2,105.2,208.2,107.5z M193.5,66.6c0-0.8,0.5-1.6,2-1.6c0.9,0,2.5,0.8,5.8,0.8
			c1.4,0,2.5-0.1,3.2-0.1c1.4,0,2,0.7,2,1.7c0,2.8-4.1,5.6-6.9,5.6C196.7,73.1,193.5,69,193.5,66.6z"/>
		<path class="st2" d="M227.5,77.3c2.6,0,5.1-0.7,7.4-0.7c5.9,0,7.3,8.5,7.3,13.6c0,13.4-6.8,19.9-14.8,19.9
			c-7.8,0-15.6-6.5-15.6-19.2c0-3,1.2-14.3,7.7-14.3C222.4,76.6,224.8,77.3,227.5,77.3z M221.1,82.8c-3.9,0-5.3,1.5-5.3,5
			c0,8.3,7.3,14.2,16.2,14.2c3.9,0,5.6-2.3,5.6-5.5C237.7,89.8,232,82.8,221.1,82.8z"/>
	</g>
	<g class="st0">
		<path class="st3" d="M10.6,9.7c4.9,0,8,1,8,3.1c0,3.1-4.2,6.8-4.2,10.7c0,1.9,0.9,3.7,3.8,3.7c5,0,8.5-4.4,8.5-8.3
			c0-2.6-2-5.8-2-7.2c0-1.1,0.4-1.8,2.2-1.8c2.3,0,6.2,0.4,7.5,0.4c1.3,0,4-0.2,5.6-0.2c1.4,0,1.7,0.7,1.7,1.4
			c0,7.8-15.8,11-15.8,17.9c0,3.6,5,7.3,10.4,7.3c1,0,2.3-0.1,2.8-0.1c1.6,0,2.2,0.8,2.2,2.5c0,4.4-1.9,9.6-7.4,9.6
			c-5.7,0-7.7-3.3-8.6-9.7c-0.8-5.9-2-8.8-7.8-8.8c-3,0-5.2,1.1-5.2,3.7c0,5.4,9.4,9.4,9.4,12.9c0,1.1-0.6,1.7-1.5,1.7
			c-0.7,0-4.3-0.3-6.5-0.3c-2.7,0-5.3,0.2-7,0.2c-1.1,0-1.9-0.8-1.9-2c0-2.2,5.6-12.1,5.6-19.5c0-9.9-3.7-13.5-3.7-15.2
			C6.7,10.3,7.7,9.7,10.6,9.7z"/>
		<path class="st3" d="M59.4,46.3c0,1.4-0.8,2-2.3,2c-0.5,0-2.6-0.2-4.3-0.2c-2,0-4.4,0.2-5.6,0.2c-1.6,0-2.6-1-2.6-2.6
			c0-3.1,6.2-7.1,6.2-16.7c0-8.2-6.5-13.4-6.5-15.5c0-1.4,0.2-2.3,4.1-3.3c3.7-1,5.9-2.6,7-2.6c1.4,0,1.9,1,1.9,2
			c0,2.8-3.4,11-3.4,22.4C53.8,37.9,59.4,43.8,59.4,46.3z"/>
		<path class="st3" d="M93.5,18.1c0,1.7-1.7,7.1-1.7,10.1c0,7.5,4.1,15.2,4.1,17.9c0,1-0.8,2.2-1.8,2.2c-1.6,0-3.6-0.1-5.4-0.1
			c-1.3,0.1-2.6,0.2-3.7,0.2c-2.1,0-3-0.6-3-2.8c0-3.5,6.5-8.2,6.5-15.7c0-6.2-7.5-9.7-12.1-9.7c-3.4,0-5.6,2.5-5.6,11.3
			c0,8.6,1.4,10.4,4.3,10.4c2.2,0,3.3-1.6,3.8-5.5c0.4-3.5,1-4.6,2.8-4.6c1.4,0,2.1,0.8,2.1,2c0,4.6-7.1,14.9-13.3,14.9
			c-4.7,0-6.6-2.8-6.6-9.7c0-12.6,5.4-23.5,16-23.5c2.6,0,5.2,0.2,7.1,0.2c1.6,0,2.7-0.2,4-0.2C92.9,15.6,93.5,16.7,93.5,18.1z"/>
		<path class="st3" d="M111.4,48.7c-5.5,0-9.5-3.6-9.5-6.8c0-3.5,3-7.6,3-11.6c0-6.7-5.1-10.1-5.1-12.1c0-2,1.3-2.5,5.3-2.5
			c5,0,7.7,1.6,7.7,5.2c0,5.5-4.8,8.6-4.8,13.3c0,2.5,3.7,5.6,11,5.6c4,0,4.9-4,4.9-7.2c0-7.1-4.7-11.8-4.7-14.7
			c0-1.2,0.7-2.1,2.1-2.1c1.7,0,2.9,0.3,4.4,0.3c1.6,0,2.7-0.3,4.3-0.3c1.3,0,2.2,0.8,2.2,2.3c0,4.2-5.2,10.6-5.2,14.7
			c0.1,5.5,7.1,9.5,7.1,13.3c0,1.5-0.6,2.3-4.6,2.3c-4.6,0-5.6-0.2-6.3-3.9c-0.2-1-0.8-1.9-2.3-1.9C116.6,42.6,115,48.7,111.4,48.7z
			"/>
		<path class="st3" d="M158.7,10.6c4-0.6,7.1-3.1,8.8-3.1c1.5,0,2,1,2,2.2c0,2.2-3.4,12-3.4,18.5c0,7.5,3.1,15.8,3.1,17.8
			c0,1.5-0.5,2.3-2,2.3c-1.7,0-10.1-1.3-12.5-1.3c-3.6,0-6.8,1.5-10.4,1.5c-3.3,0-6.5-3-6.5-11.8c0-11.7,7.5-21.4,12.9-21.4
			c2.6,0,6.5,4.3,6.5,6.3c0,1.3-0.8,1.9-2,1.7c-1.6,0-5.4-1.7-6.7-1.7c-2,0-3.4,1.4-3.4,5.8c0,11.9,4.9,16.1,10.4,16.1
			c5.1,0,7.3-8,7.3-12.5c0-9-6-15.5-6-18.4C156.6,11.2,157.6,10.8,158.7,10.6z"/>
		<path class="st3" d="M188.4,46.1c0,1.5-0.7,2.2-1.9,2.2c-0.5,0-2.7-0.2-4.4-0.2c-2.3,0-5.1,0.2-6,0.2c-1.6,0-2.3-0.5-2.3-1.8
			c0-2.8,6.2-8.1,6.2-13.2c0-6.3-7.1-12.4-7.1-15c0-1.4,0.5-1.8,4.9-2.2c3.8-0.4,5-1,6.1-1c1.6,0,2.2,0.8,2.2,2.3
			c0,2-3.1,7.9-3.1,15.9C183,38.5,188.4,43.9,188.4,46.1z M173.6,5.2c0-0.8,0.5-1.6,2-1.6c0.9,0,2.5,0.8,5.8,0.8
			c1.4,0,2.5-0.1,3.2-0.1c1.4,0,2,0.7,2,1.7c0,2.8-4.1,5.6-6.9,5.6C176.9,11.7,173.6,7.6,173.6,5.2z"/>
		<path class="st3" d="M206.6,45.5c0,2.3-0.7,3.4-4.4,4.7c-4.1,1.6-9.1,4.7-12.3,4.7c-1.4,0-1.9-0.4-1.9-1.3c0-0.7,0.4-1.4,1.3-2.2
			c8-7.1,9.2-14.8,9.2-19.3c0-5.8-7.1-10.7-7.1-13.6c0-1.7,1.6-2.2,4.9-2.5c3.9-0.4,5.4-1.1,6.5-1.1c1.1,0,1.8,0.6,1.8,2
			c0,1.9-3.1,7.4-3.1,15.1C201.6,38.6,206.6,42.5,206.6,45.5z M192.3,6.1c0-1.1,0.6-1.7,2-1.7c0.7,0,1.8,0.1,3.2,0.1
			c3.4,0,4.9-0.8,5.8-0.8c1.4,0,2,0.8,2,1.6c0,2.4-3.2,6.5-6.1,6.5C196.4,11.7,192.3,8.9,192.3,6.1z"/>
		<path class="st3" d="M240.2,18.1c0,1.7-1.7,7.1-1.7,10.1c0,7.5,4.1,15.2,4.1,17.9c0,1-0.8,2.2-1.8,2.2c-1.6,0-3.6-0.1-5.4-0.1
			c-1.3,0.1-2.6,0.2-3.7,0.2c-2.1,0-3-0.6-3-2.8c0-3.5,6.5-8.2,6.5-15.7c0-6.2-7.5-9.7-12.1-9.7c-3.4,0-5.6,2.5-5.6,11.3
			c0,8.6,1.4,10.4,4.3,10.4c2.2,0,3.3-1.6,3.8-5.5c0.4-3.5,1-4.6,2.8-4.6c1.4,0,2.1,0.8,2.1,2c0,4.6-7.1,14.9-13.3,14.9
			c-4.7,0-6.6-2.8-6.6-9.7c0-12.6,5.4-23.5,16-23.5c2.6,0,5.2,0.2,7.1,0.2c1.6,0,2.7-0.2,4-0.2C239.6,15.6,240.2,16.7,240.2,18.1z"
			/>
		<path class="st3" d="M245.5,26.2c0-1.6,2.5-2.7,2.5-6.8c0-3.5-1-5.2-1-7.3c0-1.6,0.8-2.2,1.9-2.2c0.9,0,1.9,0.1,2.8,0.1
			c0.7,0,2-0.1,2.4-0.1c1.9,0,2.6,0.7,2.6,3.7c0,6.5-4.6,14.1-9.4,14.1C246,27.7,245.5,27.1,245.5,26.2z"/>
		<path class="st3" d="M269.4,15.5c2.8,0,6,0.2,9.5,0.2c1.5,0,3.1-0.3,4-0.3c1.1,0,1.4,0.7,1.4,1.6c0,1.1-1.4,1.4-2.2,4.4
			c-0.7,2.8-1.3,3.8-2.8,3.8c-2.4,0-5.8-6.5-10.3-6.5c-1.7,0-2.8,1.1-2.8,2.8c0,6.4,18,7.1,18,16.6c0,5.8-6.1,10.8-12.8,10.8
			c-9,0-12.3-3.9-12.3-11.2c0-1.5,0.7-2,1.7-2c2.5,0,4.3,5.9,15.2,5.9c3.8,0,4.7-1.2,4.7-2.7c0-4.9-21.4-2.5-21.4-14.4
			C259.3,19.3,262.8,15.5,269.4,15.5z"/>
	</g>
	<g class="st0">
		<path class="st4" d="M7.2,75.3c3.2,0,8.4,1.5,12.6,1.5c4.4,0,8.8-2,11.5-2c3.8,0,6.7,2.8,6.7,11.8c0,9.7-4.6,17-13,17
			c-4.3,0-7.3-2.3-7.3-6.7c0-4.6,3.4-7,6.7-7c0.9,0,1.4,0.4,1.4,1.4c0,0.9-0.4,1.6-0.4,3.4c0,2.7,1.7,3.7,3.5,3.7c2.6,0,4-1.4,4-4.9
			C32.9,87,28.3,81,21.4,81c-3.8,0-8.2,1.9-8.2,12.8c0,11.2,9.2,14.9,9.2,18.2c0,1-0.7,1.7-1.5,1.7c-0.5,0-4.7-0.2-7.9-0.2
			c-2.2,0-4.9,0.3-6.4,0.3c-0.8,0-1.6-0.4-1.6-1.6c0-2.8,5.5-10.8,5.5-19.5c0-8.4-5.4-13-5.4-15.5C5,76.1,5.6,75.3,7.2,75.3z"/>
		<path class="st4" d="M56.8,81.3c2.6,0,5.1-0.7,7.4-0.7c5.9,0,7.3,8.5,7.3,13.6c0,13.4-6.8,19.9-14.8,19.9
			c-7.8,0-15.6-6.5-15.6-19.2c0-3,1.2-14.3,7.7-14.3C51.7,80.6,54.2,81.3,56.8,81.3z M50.5,86.8c-3.9,0-5.3,1.5-5.3,5
			c0,8.3,7.3,14.2,16.2,14.2c3.9,0,5.6-2.3,5.6-5.5C67,93.8,61.3,86.8,50.5,86.8z"/>
		<path class="st4" d="M98.3,90.2c0,2-0.2,3.7-2.2,3.7c-1.5,0-4.3-0.8-7-0.8c-3.4,0-4.4,2.3-4.4,4c0,5.8,8,11,8,14.6
			c0,1.1-0.5,2.2-1.7,2.2c-3,0-5.3-0.3-7.9-0.3c-2.3,0-3.9,0.3-5.7,0.3c-1.1,0-2-0.7-2-1.9c0-4.3,6.2-10.8,6.2-15.1
			c0-5.6-6.8-10.6-6.8-13.6c0-1.4,1-2,2-2c0.8,0,2.6,0.1,3.8,0.1c1.1,0,2.2-0.1,3.1-0.1c1.1,0,1.7,0.8,1.7,2.2
			c0,1.6-0.8,4.3-0.8,5.9c0,0.8,0.4,1.4,1.2,1.4c1.9,0,3.1-0.4,5-4.1c2.8-5.2,3.7-5.6,5.9-5.6c2,0,2.3,0.1,2.3,2.2
			C99.1,84.8,98.3,88.1,98.3,90.2z"/>
		<path class="st4" d="M116.5,106.4c1.1,0,1.7-0.1,2.2-0.1c1.3,0,1.6,1,1.6,1.8c0,2.2-2.9,6.1-9.5,6.1c-4.4,0-7.2-1.3-7.2-4.4
			c0-5.5,4.1-10.2,4.1-19.1c0-3.2-0.5-3.5-2-3.5c-0.7,0-2.2,0.2-2.9,0.2c-1.2,0-1.8-0.5-1.8-1.1c0-2.3,2.3-3.5,4.8-8.6
			c1.8-3.7,2.5-4.7,3.8-4.7c1.1,0,1.6,0.8,1.6,1.6c0,1.5-1,3.9-1,5.3c0,1.1,0.5,1.4,1.6,1.4c2.3,0,4.6-0.1,5.4-0.1
			c1.9,0,2.5,0.5,2.5,2.2c0,3.3-0.5,4.3-2.5,4.3c-1.4,0-3.1-0.6-4.1-0.6c-1.2,0-1.9,0.6-1.9,2.2
			C111.2,102.5,112.5,106.4,116.5,106.4z"/>
		<path class="st4" d="M123.7,80.7c0-4,3.1-7.3,7.7-7.3c1.1,0,3.1,0.3,4.9,0.3c1.5,0,3.1-0.5,4-0.5c0.8,0,1.4,0.5,1.4,1.5
			c0,2.7-1.7,5.8-3.8,5.8c-1.8,0-4.4-1.7-7.9-1.7c-2.5,0-3,1.3-3,2.5c0,2.6,0.9,4.4,3.7,4.4c2.9,0,7.8-1.5,8.9-1.5
			c1.1,0,1.5,0.5,1.5,1.9c0,3.7-0.8,5.8-2.2,5.8c-1.6,0-4.9-1-6.7-1c-0.9,0-1.7,0.6-1.7,1.8c0,9.2,8.8,15.9,8.8,18.8
			c0,1.4-0.7,2-2.1,2c-0.7,0-4.6-0.2-6.8-0.2c-1.8,0-3.8,0.2-4.9,0.2c-1.6,0-2.6-1.1-2.6-2.7c0-3.1,4.5-11.3,4.5-17.9
			C127.3,88.1,123.7,85.9,123.7,80.7z"/>
		<path class="st4" d="M159.4,81.3c2.6,0,5.1-0.7,7.4-0.7c5.9,0,7.3,8.5,7.3,13.6c0,13.4-6.8,19.9-14.8,19.9
			c-7.8,0-15.6-6.5-15.6-19.2c0-3,1.2-14.3,7.7-14.3C154.3,80.6,156.8,81.3,159.4,81.3z M153.1,86.8c-3.9,0-5.3,1.5-5.3,5
			c0,8.3,7.3,14.2,16.2,14.2c3.9,0,5.6-2.3,5.6-5.5C169.6,93.8,163.9,86.8,153.1,86.8z"/>
		<path class="st4" d="M192.7,111.6c0,1.4-0.8,2-2.3,2c-0.5,0-2.6-0.2-4.3-0.2c-2,0-4.4,0.2-5.6,0.2c-1.6,0-2.6-1-2.6-2.6
			c0-3.1,6.2-7.1,6.2-16.7c0-8.2-6.5-13.4-6.5-15.5c0-1.4,0.2-2.3,4.1-3.3c3.7-1,5.9-2.6,7-2.6c1.4,0,1.9,1,1.9,2
			c0,2.8-3.4,11-3.4,22.4C187.2,103.2,192.7,109.2,192.7,111.6z"/>
		<path class="st4" d="M211.2,111.5c0,1.5-0.7,2.2-1.9,2.2c-0.5,0-2.7-0.2-4.4-0.2c-2.3,0-5.1,0.2-6,0.2c-1.6,0-2.3-0.5-2.3-1.8
			c0-2.8,6.2-8.1,6.2-13.2c0-6.3-7.1-12.4-7.1-15c0-1.4,0.5-1.8,4.9-2.2c3.8-0.4,5-1,6.1-1c1.6,0,2.2,0.8,2.2,2.3
			c0,2-3.1,7.9-3.1,15.9C205.8,103.9,211.2,109.2,211.2,111.5z M196.5,70.6c0-0.8,0.5-1.6,2-1.6c0.9,0,2.5,0.8,5.8,0.8
			c1.4,0,2.5-0.1,3.2-0.1c1.4,0,2,0.7,2,1.7c0,2.8-4.1,5.6-6.9,5.6C199.7,77.1,196.5,73,196.5,70.6z"/>
		<path class="st4" d="M230.5,81.3c2.6,0,5.1-0.7,7.4-0.7c5.9,0,7.3,8.5,7.3,13.6c0,13.4-6.8,19.9-14.8,19.9
			c-7.8,0-15.6-6.5-15.6-19.2c0-3,1.2-14.3,7.7-14.3C225.4,80.6,227.8,81.3,230.5,81.3z M224.1,86.8c-3.9,0-5.3,1.5-5.3,5
			c0,8.3,7.3,14.2,16.2,14.2c3.9,0,5.6-2.3,5.6-5.5C240.7,93.8,235,86.8,224.1,86.8z"/>
	</g>
</g>
<g id="Layer_2">
</g>
</svg>
