<svg xmlns="http://www.w3.org/2000/svg" viewBox="0 0 590.91 590.91"><defs>
<style>.cls-1{fill:#cba5ea;}</style></defs><g id="Layer_5" data-name="Layer 5">
<path class="cls-1" d="M295.45,25.69c-149,0-269.76,120.79-269.76,269.76S146.4,565.22,295.45,565.22,565.22,444.43,565.22,295.45,444.43,25.69,295.45,25.69ZM434.2,301.82A143.61,143.61,0,0,0,301.82,434.2l-6.37,83.67L289,434.2a143.6,143.6,0,0,0-132.3-132.38L73,295.45l83.75-6.36A143.6,143.6,0,0,0,289,156.71L295.45,73l6.37,83.75A143.61,143.61,0,0,0,434.2,289.09l83.67,6.36Z"/></g>
</svg>